<?xml version="1.0" encoding="utf-8"?>
<!-- Generator: Adobe Illustrator 17.0.0, SVG Export Plug-In . SVG Version: 6.00 Build 0)  -->
<!DOCTYPE svg PUBLIC "-//W3C//DTD SVG 1.1//EN" "http://www.w3.org/Graphics/SVG/1.1/DTD/svg11.dtd">
<svg version="1.1" id="Layer_1" xmlns="http://www.w3.org/2000/svg" xmlns:xlink="http://www.w3.org/1999/xlink" x="0px" y="0px"
	 width="330px" height="342px" viewBox="0 0 330 342" enable-background="new 0 0 330 342" xml:space="preserve">
<g>
	<path fill="#1E9B74" d="M10.937,327.381c-7.882-7.882-7.882-16.565,0.001-24.449l78.296-78.298c1.562-1.562,4.095-1.562,5.657,0
		c1.562,1.562,1.562,4.095,0,5.657l-78.296,78.298c-4.726,4.726-4.727,8.409-0.001,13.135c4.726,4.726,8.409,4.725,13.136-0.001
		l78.297-78.297c1.562-1.562,4.095-1.562,5.657,0s1.562,4.095,0,5.657L35.387,327.38C27.502,335.263,18.82,335.263,10.937,327.381z"
		/>
	<path fill="#1E9B74" d="M120.554,242.819l-25.055-25.055c-1.562-1.562-1.562-4.095,0-5.657c1.562-1.562,4.095-1.562,5.657,0
		l25.055,25.055c1.562,1.562,1.562,4.095,0,5.657C124.648,244.382,122.116,244.381,120.554,242.819z"/>
	<path fill="#1E9B74" d="M126.816,230.292c-0.425-0.425-0.761-0.953-0.964-1.562c-0.698-2.096,0.435-4.361,2.53-5.06l16.894-5.631
		l5.631-16.893c0.398-1.194,1.336-2.131,2.53-2.53l16.895-5.632l5.631-16.893c0.399-1.194,1.336-2.131,2.53-2.53l16.894-5.632
		l5.631-16.893c0.398-1.194,1.336-2.131,2.53-2.53l16.893-5.631l5.631-16.894c0.398-1.194,1.336-2.131,2.53-2.53l16.894-5.632
		l5.632-16.894c0.398-1.194,1.336-2.131,2.53-2.53l16.893-5.631l5.631-16.894c0.399-1.194,1.336-2.131,2.53-2.53l16.894-5.632
		l5.632-16.894c0.454-1.361,1.603-2.375,3.01-2.657l8.33-1.666l-4.099-4.099c-0.014-0.014-0.028-0.028-0.043-0.044l-9.364-9.364
		c-4.726-4.726-8.409-4.726-13.135-0.001L110.551,208.369c-1.562,1.562-4.095,1.562-5.657,0c-1.562-1.562-1.562-4.094,0-5.657
		L280.28,27.327c7.883-7.883,16.565-7.882,24.448,0.001l9.396,9.396c0.014,0.014,0.028,0.029,0.043,0.044l9.352,9.352
		c1.043,1.043,1.428,2.576,1,3.987c-0.427,1.412-1.597,2.474-3.044,2.763l-13.383,2.677l-5.53,16.589
		c-0.398,1.194-1.336,2.131-2.529,2.529l-16.894,5.632l-5.631,16.894c-0.398,1.194-1.336,2.131-2.529,2.529l-16.894,5.631
		l-5.632,16.894c-0.398,1.194-1.336,2.131-2.529,2.529l-16.894,5.632l-5.631,16.894c-0.398,1.194-1.336,2.131-2.529,2.529
		l-16.894,5.631l-5.631,16.893c-0.398,1.194-1.336,2.131-2.53,2.53l-16.894,5.631l-5.631,16.894
		c-0.398,1.194-1.335,2.131-2.529,2.529l-16.895,5.632l-5.631,16.894c-0.398,1.194-1.336,2.131-2.529,2.529l-18.791,6.264
		C129.425,231.755,127.853,231.329,126.816,230.292z"/>
</g>
<circle fill="#FFFFFF" cx="175.111" cy="170.147" r="70.866"/>
<g>
	<path fill="#1E9B74" d="M299.704,332.542c-7.883,7.883-16.565,7.882-24.449-0.001l-78.298-78.296c-1.562-1.562-1.562-4.095,0-5.657
		c1.562-1.562,4.095-1.562,5.657,0l78.298,78.296c4.726,4.726,8.409,4.727,13.135,0.001c4.726-4.726,4.725-8.409-0.001-13.136
		l-78.297-78.297c-1.562-1.562-1.562-4.095,0-5.657s4.095-1.562,5.657,0l78.297,78.297
		C307.586,315.977,307.586,324.66,299.704,332.542z"/>
	<path fill="#1E9B74" d="M180.693,238.585c-1.562,1.562-4.094,1.562-5.657,0L21.574,85.123c-7.883-7.883-7.882-16.565,0.001-24.448
		l6.264-6.264c0.014-0.014,0.029-0.028,0.043-0.043L74.816,7.433c1.217-1.217,3.078-1.519,4.617-0.75
		c23.897,11.949,58.677,39.596,93.039,73.957c34.386,34.386,61.173,68.325,71.655,90.787c0.711,1.524,0.393,3.33-0.797,4.52
		l-53.242,53.242c-1.562,1.562-4.095,1.562-5.657,0s-1.562-4.095,0-5.657l51.229-51.229
		C212.566,126.325,127.229,41.032,78.408,15.155L33.507,60.057c-0.014,0.014-0.029,0.029-0.044,0.043l-6.231,6.231
		c-4.726,4.726-4.726,8.409-0.001,13.135l153.462,153.462C182.255,234.49,182.255,237.023,180.693,238.585z"/>
	<path fill="#1E9B74" d="M77.24,28.65c-1.951,1.951-1.953,5.118,0,7.071c1.952,1.952,5.119,1.951,7.071,0
		c1.953-1.953,1.954-5.12,0.002-7.072C82.36,26.695,79.193,26.697,77.24,28.65L77.24,28.65z"/>
	<path fill="#1E9B74" d="M215.143,222.925l-25.055,25.055c-1.562,1.562-4.094,1.562-5.657,0c-1.562-1.562-1.562-4.095,0-5.657
		l25.055-25.055c1.562-1.562,4.095-1.562,5.657,0C216.706,218.831,216.705,221.363,215.143,222.925z"/>
</g>
</svg>
