<?xml version="1.0" encoding="utf-8"?>
<!-- Generator: Adobe Illustrator 17.0.0, SVG Export Plug-In . SVG Version: 6.00 Build 0)  -->
<!DOCTYPE svg PUBLIC "-//W3C//DTD SVG 1.1//EN" "http://www.w3.org/Graphics/SVG/1.1/DTD/svg11.dtd">
<svg version="1.1" id="Layer_1" xmlns="http://www.w3.org/2000/svg" xmlns:xlink="http://www.w3.org/1999/xlink" x="0px" y="0px"
	 width="398.5px" height="286.5px" viewBox="0 0 398.5 286.5" enable-background="new 0 0 398.5 286.5" xml:space="preserve">
<g>
	<path fill="#1E9B74" d="M77.216,134.34l0.151,0.152c11.265,11.265,15.975,20.024,20.962,29.298
		c5.7,10.6,12.161,22.615,29.148,39.602l18.791,18.791c0.078,0.078,0.16,0.153,0.244,0.225l17.071,14.443
		c2.254-1.657,4.674-3.115,7.237-4.356l-19.013-16.086l-18.674-18.674c-16.155-16.155-22.054-27.126-27.759-37.735
		c-5.274-9.807-10.255-19.069-22.344-31.158l-0.248-0.25c-0.07-0.07-0.143-0.138-0.218-0.203L35.836,87.924
		c-1.669-1.446-4.194-1.265-5.642,0.405c-1.447,1.67-1.265,4.197,0.405,5.642L77.216,134.34z"/>
	<path fill="#1E9B74" d="M153.987,246.273l-14.364-16.975c-0.072-0.084-0.147-0.166-0.225-0.244l-18.791-18.791
		c-16.987-16.987-29.002-23.447-39.603-29.148c-9.246-4.972-17.981-9.67-29.198-20.862l-40.62-46.87
		c-1.447-1.67-3.974-1.85-5.643-0.403c-1.679,1.455-1.85,3.973-0.404,5.643l40.715,46.978c0.062,0.072,0.127,0.141,0.194,0.208
		c12.097,12.097,21.359,17.078,31.166,22.351c10.609,5.705,21.579,11.604,37.735,27.759l18.674,18.674l15.87,18.755
		C150.786,250.868,152.285,248.497,153.987,246.273z"/>
	<path fill="#1E9B74" d="M59.535,151.717c-1.562,1.562-4.095,1.562-5.657,0l-40.715-40.715c-1.562-1.562-1.562-4.095,0-5.657
		c1.562-1.562,4.095-1.562,5.657,0l40.715,40.715C61.097,147.622,61.097,150.155,59.535,151.717z"/>
	<path fill="none" stroke="#1E9B74" stroke-width="8" stroke-linecap="round" stroke-linejoin="round" stroke-miterlimit="10" d="
		M67.669,137.926"/>
	<path fill="#1E9B74" d="M68.931,142.321c-1.562,1.562-4.095,1.562-5.657,0L22.56,101.606c-1.562-1.562-1.562-4.095,0-5.657
		c1.562-1.562,4.095-1.562,5.657,0l40.715,40.715C70.493,138.226,70.493,140.759,68.931,142.321z"/>
</g>
<circle fill="#FFFFFF" cx="165.487" cy="251.03" r="39.862"/>
<path fill="#1E9B74" d="M137.078,273.914c-7.883-7.883-7.882-16.566,0.001-24.449l78.062-78.063l15.467-21.652
	c0.128-0.18,0.271-0.348,0.427-0.503L375.1,5.179c1.562-1.562,4.095-1.562,5.657,0c14.945,14.945,13.979,30.641-3.446,55.986
	c-17.55,25.528-53.054,62.544-112.431,121.921c-0.304,0.304-0.655,0.557-1.039,0.749l-24.476,12.24l-77.838,77.838
	C153.643,281.796,144.96,281.796,137.078,273.914z M236.926,154.669l-15.467,21.652c-0.128,0.179-0.271,0.348-0.427,0.503
	l-78.296,78.298c-4.727,4.727-4.727,8.409-0.001,13.135c4.726,4.726,8.409,4.726,13.136-0.001l78.297-78.297
	c0.304-0.304,0.655-0.557,1.039-0.749l24.476-12.24c58.767-58.775,93.881-95.382,111.037-120.338
	c15.459-22.486,14.861-33.433,7.085-42.844L236.926,154.669z"/>
</svg>
